<?xml version="1.0" encoding="utf-8"?>
<!-- Generator: Adobe Illustrator 22.0.1, SVG Export Plug-In . SVG Version: 6.00 Build 0)  -->
<svg version="1.1" xmlns="http://www.w3.org/2000/svg" xmlns:xlink="http://www.w3.org/1999/xlink" x="0px" y="0px"
	 viewBox="0 0 1296 577" style="enable-background:new 0 0 1296 577;" xml:space="preserve">
<style type="text/css">
	.st0{fill-rule:evenodd;clip-rule:evenodd;fill:#339E37;}
	.st1{fill-rule:evenodd;clip-rule:evenodd;fill:#F6A017;}
	.st2{fill-rule:evenodd;clip-rule:evenodd;fill:#F08218;}
	.st3{fill:#F08218;}
	.st4{fill:#F6A017;}
	.st5{fill:#FFFFFF;}
</style>
<g>
	<path class="st0" d="M481.933,17.867c64.286,55.92,38.193,149.408,12.8,179.2c0.966-36.354,2.153-67.888-12.671-88.993
		c4.881,30.985,10.44,69.507,4.138,97.526C365.536,119.722,500.355,83.731,481.933,17.867z"/>
	<path class="st1" d="M480.544,219.908l-3.042-2.087c-33.839-24.084-52.226-47.342-56.21-71.103
		c-1.252-7.468-1.052-14.548,0.171-21.299c-39.12-32.37-89.315-51.825-144.056-51.825c-124.885,0-226.125,101.247-226.125,226.141
		c0,124.894,101.24,226.141,226.125,226.141s226.125-101.247,226.125-226.141c0-27.413-4.88-53.685-13.814-77.999
		C486.627,222.381,483.308,221.803,480.544,219.908z"/>
</g>
<path class="st2" d="M518.699,436.781c-0.222,0.386-0.879,1.453-2.986,5.143C467.231,522.838,378.69,577,277.5,577
	C124.241,577,0,452.759,0,299.5S124.241,22,277.5,22c48.459,0,94.018,12.421,133.664,34.254c5.761,3.173,8.899,4.89,6.83,3.756
	c0,0,5.674,3.459,2.492,8.952c-1.8,3.106-5.777,4.165-8.883,2.366c0.998,0.578,0.826,0.4-8.145-4.468
	C366.008,46.54,323.102,35,277.5,35C131.421,35,13,153.421,13,299.5S131.421,564,277.5,564c96.191,0,180.389-51.347,226.68-128.128
	c1.855-2.844,3.527-6.102,3.217-5.563c1.791-3.113,5.773-4.189,8.894-2.402C519.412,429.694,520.49,433.667,518.699,436.781z"/>
<path class="st3" d="M606.164,433.78c0-1.536-0.584-2.859-1.749-3.968c-1.167-1.109-2.632-1.664-4.395-1.664
	c-1.195,0-2.319,0.228-3.371,0.683c-1.053,0.456-1.892,1.309-2.517,2.56l-15.189,30.208l-15.189-30.123
	c-1.139-2.219-3.129-3.328-5.973-3.328c-1.764,0-3.229,0.527-4.395,1.579c-1.167,1.053-1.749,2.404-1.749,4.053v50.688
	c0,1.48,0.555,2.745,1.664,3.797c1.109,1.052,2.488,1.579,4.139,1.579c1.649,0,3.085-0.527,4.309-1.579
	c1.223-1.052,1.835-2.317,1.835-3.797v-29.355l9.728,19.115c0.568,1.139,1.351,1.963,2.347,2.475c0.995,0.512,2.061,0.768,3.2,0.768
	c1.195,0,2.289-0.256,3.285-0.768c0.995-0.512,1.777-1.336,2.347-2.475l9.728-19.115v29.355c0,1.48,0.597,2.745,1.792,3.797
	c1.195,1.052,2.616,1.579,4.267,1.579c1.592,0,2.972-0.527,4.139-1.579c1.165-1.052,1.749-2.317,1.749-3.797V433.78z"/>
<path class="st3" d="M644.393,489.033c1.052-0.54,1.863-1.265,2.432-2.176l19.797-34.475v31.915c0,1.48,0.597,2.773,1.792,3.883
	c1.195,1.109,2.616,1.664,4.267,1.664c1.649,0,3.043-0.555,4.181-1.664c1.137-1.109,1.707-2.403,1.707-3.883v-50.347
	c0-1.649-0.584-3.029-1.749-4.139c-1.167-1.109-2.66-1.664-4.48-1.664c-1.139,0-2.233,0.285-3.285,0.853
	c-1.053,0.569-1.892,1.337-2.517,2.304c-1.877,3.3-3.599,6.315-5.163,9.045c-1.565,2.731-3.101,5.419-4.608,8.064
	c-1.508,2.645-3.072,5.376-4.693,8.192c-1.621,2.816-3.4,5.931-5.333,9.344v-32.256c0-1.479-0.597-2.773-1.792-3.883
	c-1.195-1.109-2.617-1.664-4.267-1.664c-1.651,0-3.044,0.555-4.181,1.664c-1.139,1.109-1.707,2.404-1.707,3.883v50.347
	c0,1.593,0.583,2.959,1.749,4.096c1.165,1.137,2.688,1.707,4.565,1.707C642.245,489.844,643.339,489.573,644.393,489.033z"/>
<path class="st3" d="M718.889,433.609c0-1.479-0.584-2.759-1.749-3.84c-1.167-1.08-2.575-1.621-4.224-1.621
	c-1.651,0-3.059,0.541-4.224,1.621c-1.167,1.081-1.749,2.361-1.749,3.84v50.688c0,1.48,0.583,2.773,1.749,3.883
	c1.165,1.109,2.573,1.664,4.224,1.664c1.649,0,3.057-0.555,4.224-1.664c1.165-1.109,1.749-2.403,1.749-3.883v-19.883h0.939
	l17.152,22.955c1.251,1.651,2.901,2.475,4.949,2.475c0.909,0,1.72-0.185,2.432-0.555c0.711-0.369,1.323-0.824,1.835-1.365
	c0.512-0.54,0.896-1.152,1.152-1.835c0.256-0.683,0.384-1.336,0.384-1.963c0-0.455-0.057-0.896-0.171-1.323
	c-0.115-0.427-0.371-0.952-0.768-1.579l-16.811-22.272l16.811-22.187c0.397-0.625,0.653-1.152,0.768-1.579
	c0.113-0.427,0.171-0.867,0.171-1.323c0-0.625-0.128-1.28-0.384-1.963s-0.64-1.293-1.152-1.835c-0.512-0.54-1.124-0.995-1.835-1.365
	c-0.712-0.369-1.523-0.555-2.432-0.555c-2.048,0-3.699,0.825-4.949,2.475l-17.067,22.869h-1.024V433.609z"/>
<path class="st3" d="M791.358,468.596c3.299,0,6.285-0.44,8.96-1.323c2.673-0.881,4.963-2.147,6.869-3.797
	c1.905-1.649,3.371-3.697,4.395-6.144c1.024-2.445,1.536-5.261,1.536-8.448c0-2.616-0.384-5.12-1.152-7.509
	c-0.768-2.389-2.005-4.508-3.712-6.357c-1.707-1.848-3.955-3.328-6.741-4.437c-2.788-1.109-6.173-1.664-10.155-1.664h-12.544
	c-0.911,0-1.764,0.171-2.56,0.512c-0.797,0.341-1.493,0.783-2.091,1.323c-0.597,0.541-1.081,1.181-1.451,1.92
	c-0.371,0.74-0.555,1.536-0.555,2.389v49.152c0,1.536,0.597,2.859,1.792,3.968c1.195,1.109,2.588,1.664,4.181,1.664
	c1.649,0,3.057-0.569,4.224-1.707c1.165-1.137,1.749-2.445,1.749-3.925v-15.616H791.358z M784.105,439.753h7.253
	c1.991,0,3.627,0.271,4.907,0.811c1.28,0.541,2.275,1.237,2.987,2.091c0.711,0.853,1.208,1.821,1.493,2.901
	c0.284,1.081,0.427,2.163,0.427,3.243c0,3.072-0.825,5.333-2.475,6.784c-1.651,1.451-4.096,2.176-7.339,2.176h-7.253V439.753z"/>
<path class="st3" d="M868.777,488.095c2.759-1.165,5.063-2.759,6.912-4.779c1.848-2.019,3.243-4.395,4.181-7.125
	c0.939-2.731,1.408-5.66,1.408-8.789v-16.896c0-3.015-0.413-5.873-1.237-8.576c-0.825-2.701-2.12-5.077-3.883-7.125
	c-1.764-2.048-4.053-3.669-6.869-4.864c-2.816-1.195-6.216-1.792-10.197-1.792c-3.983,0-7.381,0.597-10.197,1.792
	c-2.816,1.195-5.107,2.816-6.869,4.864c-1.764,2.048-3.059,4.424-3.883,7.125c-0.825,2.703-1.237,5.561-1.237,8.576v16.896
	c0,3.129,0.469,6.059,1.408,8.789c0.939,2.731,2.332,5.107,4.181,7.125c1.848,2.02,4.152,3.613,6.912,4.779
	c2.759,1.165,5.987,1.749,9.685,1.749C862.789,489.844,866.017,489.26,868.777,488.095z M867.027,442.143
	c1.536,2.105,2.304,4.893,2.304,8.363v16.896c0,3.413-0.825,6.201-2.475,8.363c-1.651,2.163-4.239,3.243-7.765,3.243
	c-3.528,0-6.116-1.08-7.765-3.243c-1.651-2.161-2.475-4.949-2.475-8.363v-16.896c0-3.469,0.768-6.257,2.304-8.363
	c1.536-2.104,4.181-3.157,7.936-3.157C862.846,438.985,865.491,440.039,867.027,442.143z"/>
<path class="st3" d="M985.598,463.263c-1.992-2.189-4.693-3.968-8.107-5.333c3.128-1.592,5.504-3.413,7.125-5.461
	c1.621-2.048,2.432-4.523,2.432-7.424c0-1.933-0.399-3.911-1.195-5.931c-0.797-2.019-1.992-3.84-3.584-5.461
	c-1.593-1.621-3.584-2.944-5.973-3.968c-2.389-1.024-5.149-1.536-8.277-1.536c-1.992,0-4.096,0.213-6.315,0.64
	c-2.219,0.427-4.267,1.039-6.144,1.835c-1.877,0.797-3.428,1.764-4.651,2.901c-1.224,1.139-1.835,2.419-1.835,3.84
	c0,1.423,0.568,2.603,1.707,3.541c1.137,0.939,2.389,1.408,3.755,1.408c1.195,0,2.289-0.299,3.285-0.896
	c0.995-0.597,1.976-1.123,2.944-1.579c1.991-0.909,4.181-1.365,6.571-1.365c1.536,0,2.816,0.2,3.84,0.597
	c1.024,0.399,1.848,0.925,2.475,1.579c0.625,0.655,1.08,1.38,1.365,2.176c0.284,0.797,0.427,1.593,0.427,2.389
	c0,1.365-0.341,2.532-1.024,3.499c-0.683,0.968-1.579,1.779-2.688,2.432c-1.109,0.655-2.376,1.152-3.797,1.493
	c-1.423,0.341-2.845,0.541-4.267,0.597c-0.627,0-1.295,0.043-2.005,0.128c-0.712,0.085-1.352,0.299-1.92,0.64
	c-0.569,0.341-1.039,0.853-1.408,1.536c-0.371,0.683-0.555,1.621-0.555,2.816c0,1.252,0.184,2.233,0.555,2.944
	c0.369,0.712,0.867,1.237,1.493,1.579c0.625,0.341,1.336,0.569,2.133,0.683c0.796,0.115,1.592,0.2,2.389,0.256
	c1.649,0.115,3.213,0.313,4.693,0.597c1.479,0.285,2.787,0.712,3.925,1.28c1.137,0.569,2.048,1.323,2.731,2.261
	c0.683,0.939,1.024,2.12,1.024,3.541c0,2.219-0.84,4.111-2.517,5.675c-1.679,1.565-4.139,2.347-7.381,2.347
	c-1.651,0-3.087-0.199-4.309-0.597c-1.224-0.397-2.333-0.839-3.328-1.323c-0.996-0.483-1.935-0.924-2.816-1.323
	c-0.883-0.397-1.779-0.597-2.688-0.597c-1.48,0-2.773,0.499-3.883,1.493c-1.109,0.996-1.664,2.205-1.664,3.627
	c0,1.536,0.668,2.859,2.005,3.968c1.336,1.109,2.987,2.048,4.949,2.816c1.963,0.768,4.081,1.337,6.357,1.707
	c2.275,0.369,4.352,0.555,6.229,0.555c3.185,0,6.072-0.499,8.661-1.493c2.588-0.995,4.792-2.332,6.613-4.011
	c1.82-1.677,3.213-3.597,4.181-5.76c0.967-2.161,1.451-4.437,1.451-6.827C988.585,468.284,987.589,465.453,985.598,463.263z"/>
<path class="st3" d="M1025.363,477.215h18.176l2.987,8.619c0.455,1.195,1.251,2.163,2.389,2.901
	c1.137,0.739,2.275,1.109,3.413,1.109c1.763,0,3.228-0.499,4.395-1.493c1.165-0.995,1.749-2.317,1.749-3.968
	c0-0.227-0.015-0.54-0.043-0.939c-0.029-0.397-0.1-0.711-0.213-0.939l-16.64-48.555c-0.627-1.707-1.437-3.1-2.432-4.181
	c-0.996-1.08-2.517-1.621-4.565-1.621c-2.048,0-3.571,0.555-4.565,1.664c-0.996,1.109-1.779,2.489-2.347,4.139l-16.64,48.555
	c-0.115,0.228-0.185,0.541-0.213,0.939c-0.029,0.399-0.043,0.712-0.043,0.939c0,1.651,0.611,2.973,1.835,3.968
	c1.223,0.995,2.659,1.493,4.309,1.493c1.024,0,2.104-0.356,3.243-1.067c1.137-0.711,1.933-1.692,2.389-2.944L1025.363,477.215z
	 M1040.467,467.487h-11.947l4.523-14.592c0.397-1.251,0.711-2.631,0.939-4.139c0.227-1.507,0.427-2.915,0.597-4.224
	c0.171,1.309,0.369,2.717,0.597,4.224c0.227,1.508,0.54,2.888,0.939,4.139L1040.467,467.487z"/>
<path class="st3" d="M1099.048,414.324c-0.456-0.625-1.024-1.109-1.707-1.451c-0.683-0.341-1.395-0.512-2.133-0.512
	c-0.569,0-1.124,0.1-1.664,0.299c-0.541,0.2-1.01,0.499-1.408,0.896c-0.399,0.399-0.669,0.896-0.811,1.493
	c-0.143,0.597-0.1,1.295,0.128,2.091c0.397,1.252,1.067,2.347,2.005,3.285c0.939,0.939,2.005,1.736,3.2,2.389
	c1.195,0.655,2.46,1.152,3.797,1.493c1.336,0.341,2.573,0.512,3.712,0.512c1.137,0,2.375-0.171,3.712-0.512
	c1.336-0.341,2.616-0.839,3.84-1.493c1.223-0.653,2.304-1.451,3.243-2.389c0.939-0.939,1.578-2.033,1.92-3.285
	c0.227-0.796,0.269-1.493,0.128-2.091c-0.143-0.597-0.413-1.095-0.811-1.493c-0.399-0.397-0.868-0.696-1.408-0.896
	c-0.541-0.199-1.096-0.299-1.664-0.299c-1.651,0-2.959,0.655-3.925,1.963c-0.797,0.853-1.636,1.508-2.517,1.963
	c-0.883,0.456-1.721,0.683-2.517,0.683C1102.518,416.969,1100.811,416.088,1099.048,414.324L1099.048,414.324z M1092.35,489.033
	c1.052-0.54,1.863-1.265,2.432-2.176l19.797-34.475v31.915c0,1.48,0.597,2.773,1.792,3.883c1.195,1.109,2.616,1.664,4.267,1.664
	c1.649,0,3.043-0.555,4.181-1.664c1.137-1.109,1.707-2.403,1.707-3.883v-50.347c0-1.649-0.584-3.029-1.749-4.139
	c-1.167-1.109-2.66-1.664-4.48-1.664c-1.139,0-2.233,0.285-3.285,0.853c-1.053,0.569-1.892,1.337-2.517,2.304
	c-1.877,3.3-3.599,6.315-5.163,9.045c-1.565,2.731-3.101,5.419-4.608,8.064c-1.508,2.645-3.072,5.376-4.693,8.192
	c-1.621,2.816-3.4,5.931-5.333,9.344v-32.256c0-1.479-0.597-2.773-1.792-3.883c-1.195-1.109-2.617-1.664-4.267-1.664
	c-1.651,0-3.044,0.555-4.181,1.664c-1.139,1.109-1.707,2.404-1.707,3.883v50.347c0,1.593,0.583,2.959,1.749,4.096
	c1.165,1.137,2.688,1.707,4.565,1.707C1090.202,489.844,1091.296,489.573,1092.35,489.033z"/>
<path class="st3" d="M1208.552,433.78c0-1.536-0.584-2.859-1.749-3.968c-1.167-1.109-2.632-1.664-4.395-1.664
	c-1.195,0-2.319,0.228-3.371,0.683c-1.053,0.456-1.892,1.309-2.517,2.56l-15.189,30.208l-15.189-30.123
	c-1.139-2.219-3.129-3.328-5.973-3.328c-1.764,0-3.229,0.527-4.395,1.579c-1.167,1.053-1.749,2.404-1.749,4.053v50.688
	c0,1.48,0.555,2.745,1.664,3.797c1.109,1.052,2.488,1.579,4.139,1.579c1.649,0,3.085-0.527,4.309-1.579
	c1.223-1.052,1.835-2.317,1.835-3.797v-29.355l9.728,19.115c0.568,1.139,1.351,1.963,2.347,2.475c0.995,0.512,2.061,0.768,3.2,0.768
	c1.195,0,2.289-0.256,3.285-0.768c0.995-0.512,1.777-1.336,2.347-2.475l9.728-19.115v29.355c0,1.48,0.597,2.745,1.792,3.797
	c1.195,1.052,2.616,1.579,4.267,1.579c1.592,0,2.972-0.527,4.139-1.579c1.165-1.052,1.749-2.317,1.749-3.797V433.78z"/>
<path class="st3" d="M1281.385,484.383c0,1.48,0.583,2.76,1.749,3.84c1.165,1.08,2.573,1.621,4.224,1.621
	c1.649,0,3.057-0.541,4.224-1.621c1.165-1.08,1.749-2.36,1.749-3.84v-50.773c0-1.479-0.584-2.759-1.749-3.84
	c-1.167-1.08-2.575-1.621-4.224-1.621c-1.651,0-3.059,0.541-4.224,1.621c-1.167,1.081-1.749,2.361-1.749,3.84V484.383z
	 M1249.129,433.78c0-1.479-0.584-2.787-1.749-3.925c-1.167-1.137-2.575-1.707-4.224-1.707c-1.593,0-2.987,0.555-4.181,1.664
	c-1.195,1.109-1.792,2.432-1.792,3.968v49.152c0,0.853,0.184,1.651,0.555,2.389c0.369,0.74,0.853,1.38,1.451,1.92
	c0.597,0.541,1.293,0.981,2.091,1.323c0.796,0.341,1.649,0.512,2.56,0.512h11.691c3.981,0,7.367-0.555,10.155-1.664
	c2.787-1.109,5.035-2.588,6.741-4.437c1.707-1.848,2.944-3.981,3.712-6.4c0.768-2.417,1.152-4.935,1.152-7.552
	c0-3.128-0.512-5.931-1.536-8.405c-1.024-2.475-2.489-4.536-4.395-6.187c-1.907-1.649-4.196-2.915-6.869-3.797
	c-2.675-0.881-5.661-1.323-8.96-1.323h-6.4V433.78z M1255.528,460.148c3.243,0,5.688,0.725,7.339,2.176
	c1.649,1.451,2.475,3.712,2.475,6.784c0,1.139-0.143,2.248-0.427,3.328c-0.285,1.081-0.783,2.048-1.493,2.901
	c-0.712,0.853-1.707,1.551-2.987,2.091c-1.28,0.541-2.916,0.811-4.907,0.811h-6.4v-18.091H1255.528z"/>
<path class="st4" d="M605.631,335.559c7.848-6.824,11.776-16.384,11.776-28.672c0-12.968-4.14-23.464-12.416-31.488
	c-8.28-8.02-20.864-12.032-37.76-12.032c-8.876,0-16.728,1.152-23.552,3.456c-6.828,2.304-12.544,5.504-17.152,9.6
	c-4.608,4.096-8.064,8.92-10.368,14.464c-2.304,5.548-3.456,11.564-3.456,18.048v42.752c0,6.316,1.192,12.204,3.584,17.664
	c2.388,5.464,5.844,10.2,10.368,14.208c4.52,4.012,10.068,7.168,16.64,9.472c6.568,2.304,14.12,3.456,22.656,3.456
	c4.096,0,8.96-0.344,14.592-1.024c5.632-0.684,11.008-1.876,16.128-3.584c5.12-1.704,9.472-4.008,13.056-6.912
	c3.584-2.9,5.376-6.568,5.376-11.008c0-1.536-0.256-3.112-0.768-4.736c-0.512-1.62-1.368-3.112-2.56-4.48
	c-1.196-1.364-2.816-2.516-4.864-3.456c-2.048-0.936-4.608-1.408-7.68-1.408c-2.22,0-3.928,0.172-5.12,0.512
	c-1.196,0.344-2.048,0.684-2.56,1.024c-4.096,1.88-7.936,3.288-11.52,4.224c-3.584,0.94-7.424,1.408-11.52,1.408
	c-7,0-12.16-1.28-15.488-3.84s-4.992-6.056-4.992-10.496v-8.448c3.752,0.512,7.124,0.896,10.112,1.152
	c2.984,0.256,6.184,0.384,9.6,0.384C585.151,345.799,597.779,342.387,605.631,335.559z M578.112,316.359
	c-2.816,2.048-6.7,3.072-11.648,3.072c-1.368,0-3.756-0.084-7.168-0.256c-3.416-0.168-7.168-0.424-11.264-0.768v-11.008
	c0-5.12,1.62-9.172,4.864-12.16c3.24-2.984,7.936-4.48,14.08-4.48c4.948,0,8.744,1.112,11.392,3.328
	c2.644,2.22,3.968,5.888,3.968,11.008C582.336,310.559,580.928,314.311,578.112,316.359z"/>
<path class="st4" d="M683.708,342.471c2.216-6.996,3.88-13.992,4.992-20.992c1.108-6.996,2.344-14.08,3.712-21.248
	c1.364,7.168,2.6,14.252,3.712,21.248c1.108,7,2.688,13.996,4.736,20.992l13.312,42.752c1.192,3.416,3.412,6.104,6.656,8.064
	c3.24,1.96,6.568,2.944,9.984,2.944c4.608,0,8.66-1.408,12.16-4.224c3.496-2.816,5.248-6.528,5.248-11.136c0-0.68,0-1.364,0-2.048
	c0-0.68-0.172-1.448-0.512-2.304l-35.072-97.024c-2.048-5.46-4.568-9.428-7.552-11.904c-2.988-2.472-7.212-3.712-12.672-3.712
	c-5.632,0-9.984,1.196-13.056,3.584c-3.072,2.392-5.548,6.232-7.424,11.52l-35.584,97.792c-0.344,0.856-0.512,1.624-0.512,2.304
	c0,0.684,0,1.368,0,2.048c0,4.608,1.748,8.32,5.248,11.136c3.496,2.816,7.552,4.224,12.16,4.224c3.412,0,6.696-0.984,9.856-2.944
	c3.156-1.96,5.332-4.648,6.528-8.064L683.708,342.471z"/>
<path class="st4" d="M809.912,279.751c0-4.264-1.708-7.936-5.12-11.008c-3.416-3.072-7.596-4.608-12.544-4.608
	c-4.952,0-9.132,1.536-12.544,4.608c-3.416,3.072-5.12,6.744-5.12,11.008v99.072c0,4.268,1.704,7.98,5.12,11.136
	c3.412,3.16,7.592,4.736,12.544,4.736h41.984c16.04,0,27.988-3.712,35.84-11.136c7.848-7.424,11.776-17.192,11.776-29.312
	c0-13.312-3.968-23.592-11.904-30.848c-7.936-7.252-20.952-10.88-39.04-10.88h-20.992V279.751z M830.904,341.447
	c3.412,0,6.144,0.344,8.192,1.024c2.048,0.684,3.668,1.624,4.864,2.816c1.192,1.196,1.96,2.476,2.304,3.84
	c0.34,1.368,0.512,2.816,0.512,4.352c0,8.024-4.352,12.032-13.056,12.032h-23.808v-24.064H830.904z"/>
<path class="st4" d="M909.235,347.591c0,6.828,1.064,13.228,3.2,19.2c2.132,5.976,5.376,11.136,9.728,15.488
	c4.352,4.352,9.812,7.808,16.384,10.368c6.568,2.56,14.376,3.84,23.424,3.84c3.752,0,8.192-0.3,13.312-0.896
	c5.12-0.6,9.94-1.704,14.464-3.328c4.52-1.62,8.36-3.88,11.52-6.784c3.156-2.9,4.736-6.656,4.736-11.264
	c0-1.536-0.216-3.072-0.64-4.608c-0.428-1.536-1.28-2.944-2.56-4.224c-1.28-1.28-2.988-2.304-5.12-3.072
	c-2.136-0.768-4.824-1.152-8.064-1.152c-1.88,0-3.328,0.128-4.352,0.384c-1.024,0.256-2.22,0.64-3.584,1.152
	c-2.56,1.024-5.12,2.008-7.68,2.944c-2.56,0.94-5.804,1.408-9.728,1.408c-7.168,0-12.248-1.748-15.232-5.248
	c-2.988-3.496-4.48-8.232-4.48-14.208v-34.56c0-5.972,1.492-10.708,4.48-14.208c2.984-3.496,8.064-5.248,15.232-5.248
	c3.924,0,7.124,0.472,9.6,1.408c2.472,0.94,5.076,1.92,7.808,2.944c1.876,0.684,3.412,1.112,4.608,1.28
	c1.192,0.172,2.472,0.256,3.84,0.256c6.312,0,10.536-1.408,12.672-4.224c2.132-2.816,3.2-5.76,3.2-8.832
	c0-4.608-1.58-8.36-4.736-11.264c-3.16-2.9-7-5.16-11.52-6.784c-4.524-1.62-9.304-2.728-14.336-3.328
	c-5.036-0.596-9.432-0.896-13.184-0.896c-9.216,0-17.152,1.28-23.808,3.84c-6.656,2.56-12.16,6.016-16.512,10.368
	c-4.352,4.352-7.552,9.516-9.6,15.488c-2.048,5.976-3.072,12.376-3.072,19.2V347.591z"/>
<path class="st4" d="M1062.066,394.695c2.9-1.536,5.288-3.584,7.168-6.144l42.496-65.536v57.6c0,4.44,1.704,8.28,5.12,11.52
	c3.412,3.24,7.592,4.864,12.544,4.864c4.948,0,9.128-1.624,12.544-4.864c3.412-3.24,5.12-7.08,5.12-11.52v-99.84
	c0-4.948-1.708-9-5.12-12.16c-3.416-3.156-7.852-4.736-13.312-4.736c-3.416,0-6.656,0.728-9.728,2.176
	c-3.072,1.452-5.464,3.628-7.168,6.528l-42.752,66.048v-58.624c0-4.436-1.752-8.232-5.248-11.392
	c-3.5-3.156-7.724-4.736-12.672-4.736c-4.952,0-9.088,1.58-12.416,4.736c-3.328,3.16-4.992,6.956-4.992,11.392v100.096
	c0,4.608,1.748,8.576,5.248,11.904c3.496,3.328,8.064,4.992,13.696,4.992C1056.006,396.999,1059.162,396.231,1062.066,394.695z"/>
<path class="st4" d="M1221.296,380.615v-38.144h38.912v38.144c0,4.44,1.704,8.192,5.12,11.264c3.412,3.072,7.592,4.608,12.544,4.608
	c4.948,0,9.128-1.536,12.544-4.608c3.412-3.072,5.12-6.824,5.12-11.264V279.751c0-4.264-1.708-7.936-5.12-11.008
	c-3.416-3.072-7.596-4.608-12.544-4.608c-4.952,0-9.132,1.536-12.544,4.608c-3.416,3.072-5.12,6.744-5.12,11.008v34.048h-38.912
	v-34.048c0-4.264-1.708-7.936-5.12-11.008c-3.416-3.072-7.596-4.608-12.544-4.608c-4.952,0-9.132,1.536-12.544,4.608
	c-3.416,3.072-5.12,6.744-5.12,11.008v100.864c0,4.44,1.704,8.192,5.12,11.264c3.412,3.072,7.592,4.608,12.544,4.608
	c4.948,0,9.128-1.536,12.544-4.608C1219.588,388.807,1221.296,385.055,1221.296,380.615L1221.296,380.615z"/>
<path class="st5" d="M245.957,359.111h54.528l8.96,25.856c1.364,3.584,3.752,6.488,7.168,8.704c3.412,2.216,6.824,3.328,10.24,3.328
	c5.288,0,9.684-1.496,13.184-4.48c3.496-2.984,5.248-6.952,5.248-11.904c0-0.68-0.044-1.62-0.128-2.816
	c-0.088-1.192-0.3-2.132-0.64-2.816l-49.92-145.664c-1.88-5.12-4.312-9.3-7.296-12.544c-2.988-3.24-7.552-4.864-13.696-4.864
	c-6.144,0-10.712,1.664-13.696,4.992c-2.988,3.328-5.336,7.468-7.04,12.416l-49.92,145.664c-0.344,0.684-0.556,1.624-0.64,2.816
	c-0.088,1.196-0.128,2.136-0.128,2.816c0,4.952,1.832,8.92,5.504,11.904c3.668,2.984,7.976,4.48,12.928,4.48
	c3.072,0,6.312-1.068,9.728-3.2c3.412-2.132,5.8-5.076,7.168-8.832L245.957,359.111z M291.269,329.927h-35.84l13.568-43.776
	c1.192-3.752,2.132-7.892,2.816-12.416c0.68-4.52,1.28-8.744,1.792-12.672c0.512,3.928,1.108,8.152,1.792,12.672
	c0.68,4.524,1.62,8.664,2.816,12.416L291.269,329.927z"/>
<path class="st5" d="M389.314,265.415c-4.952,0-9.132,1.536-12.544,4.608c-3.416,3.072-5.12,6.828-5.12,11.264v99.328
	c0,4.44,1.704,8.192,5.12,11.264c3.412,3.072,7.592,4.608,12.544,4.608c4.948,0,9.128-1.536,12.544-4.608
	c3.412-3.072,5.12-6.824,5.12-11.264v-86.272h36.352v86.272c0,4.44,1.704,8.192,5.12,11.264c3.412,3.072,7.592,4.608,12.544,4.608
	c4.948,0,9.128-1.536,12.544-4.608c3.412-3.072,5.12-6.824,5.12-11.264v-99.328c0-4.436-1.708-8.192-5.12-11.264
	c-3.416-3.072-7.596-4.608-12.544-4.608H389.314z"/>
<g>
	<path class="st0" d="M763.533,22.133c-19.082,205.001-173.211,218.992-233.919,200.709
		c44.632-10.907,109.029-47.329,135.786-89.775c-40.172,30.883-87.653,55.538-132.267,68.267
		C515.566,58.795,693.302,86.748,763.533,22.133z"/>
</g>
</svg>
